# xmcd
#
# Track frame offsets: 
#        150
#        14145
#        29078
#        46675
#        62233
#        80795
#        96050
#        109213
#        120693
#        138885
#        153433
#
# Disc length: 2198 seconds
#
# Revision: 3
# Processed by: cddbd v1.5.2PL0 Copyright (c) Steve Scherf et al.
# Submitted via: ExactAudioCopy v0.95b4
#
DISCID=9608940b
DTITLE=Various Artist - Today's Hot Country
DYEAR=1992
DGENRE=Country
TTITLE0=Patty Loveless - I'm That Kind of Girl
TTITLE1=Diamond Rio - Meet Me in the Middle
TTITLE2=Collin Raye - Love, Me
TTITLE3=Ricky Van Shelton - I Am a Simple Man
TTITLE4=Vince Gill - Pocket Full of Gold
TTITLE5=Mary Chapin Carpenter - Down at the Twist and Shout
TTITLE6=John Anderson - Straight Tequila Night
TTITLE7=Highway 101 - Bing Bang Boom
TTITLE8=Pirates of the Mississippi - Feed Jake
TTITLE9=Pam Tillis - Don't Tell Me What to Do
TTITLE10=The Wood Brothers - Alcohol of Fame
EXTD=
EXTT0=
EXTT1=
EXTT2=
EXTT3=
EXTT4=
EXTT5=
EXTT6=
EXTT7=
EXTT8=
EXTT9=
EXTT10=
PLAYORDER=
